<?xml version="1.0" standalone="no"?>
<!DOCTYPE svg PUBLIC "-//W3C//DTD SVG 20010904//EN"
 "http://www.w3.org/TR/2001/REC-SVG-20010904/DTD/svg10.dtd">
<svg version="1.0" xmlns="http://www.w3.org/2000/svg"
 width="800.000000pt" height="800.000000pt" viewBox="0 0 800.000000 800.000000"
 preserveAspectRatio="xMidYMid meet">

<g transform="translate(0.000000,800.000000) scale(0.100000,-0.100000)"
fill="#000000" stroke="none">
<path d="M0 4000 l0 -4000 4000 0 4000 0 0 4000 0 4000 -4000 0 -4000 0 0
-4000z m4227 2090 c489 -40 936 -215 1363 -534 204 -151 472 -448 620 -686
136 -217 268 -541 324 -792 61 -271 59 -244 63 -1250 l4 -928 -2601 0 -2601 0
4 938 c3 829 5 948 20 1037 80 466 234 832 496 1184 114 152 352 393 498 504
408 310 841 477 1373 530 76 8 331 6 437 -3z"/>
<path d="M3835 5994 c-478 -42 -862 -174 -1234 -425 -623 -420 -1020 -1094
-1091 -1854 -6 -65 -10 -441 -10 -912 l0 -803 2501 0 2500 0 -4 858 c-3 740
-6 873 -21 972 -83 564 -321 1043 -711 1436 -414 417 -968 674 -1555 722 -107
9 -303 12 -375 6z m545 -124 c413 -72 743 -212 1060 -451 450 -339 757 -806
891 -1354 62 -257 62 -254 66 -1147 l4 -818 -2400 0 -2401 0 0 780 c0 479 4
818 11 878 71 655 416 1260 949 1661 361 272 759 425 1235 475 22 2 135 3 250
1 158 -3 241 -9 335 -25z"/>
<path d="M3825 5794 c-427 -35 -857 -197 -1194 -449 -492 -369 -803 -885 -907
-1505 -15 -92 -18 -197 -21 -872 l-4 -768 2300 0 2301 0 0 669 c0 662 -6 841
-36 1016 -93 551 -392 1060 -827 1407 -125 99 -186 140 -322 216 -331 184
-681 279 -1060 286 -99 2 -202 2 -230 0z m946 -522 l29 -32 0 -675 0 -675
-800 0 -800 0 0 674 0 674 25 31 c14 16 36 32 48 34 12 3 347 4 745 3 l724 -1
29 -33z m-171 -1772 l0 -50 -600 0 -600 0 0 50 0 50 600 0 600 0 0 -50z
m-1210 -400 c0 -29 -4 -40 -15 -40 -21 0 -19 -7 17 -90 l32 -73 33 69 c36 79
39 94 18 94 -11 0 -15 11 -15 40 l0 40 90 0 90 0 0 -40 c0 -33 -3 -40 -20 -40
-15 0 -34 -29 -85 -130 -63 -125 -65 -132 -65 -205 l0 -75 45 0 45 0 0 -40 0
-40 -135 0 -135 0 0 40 0 40 45 0 45 0 0 75 c0 73 -2 80 -65 205 -51 101 -70
130 -85 130 -17 0 -20 7 -20 40 l0 40 90 0 90 0 0 -40z m770 -65 l0 -105 -40
0 -40 0 0 65 0 65 -40 0 -40 0 0 -205 0 -205 45 0 45 0 0 -40 0 -40 -135 0
-135 0 0 40 0 40 45 0 45 0 0 205 0 205 -40 0 -40 0 0 -65 0 -65 -40 0 -40 0
0 105 0 105 205 0 205 0 0 -105z m510 65 l0 -40 -140 0 -140 0 0 -80 0 -80
110 0 110 0 0 -40 0 -40 -110 0 -110 0 0 -125 0 -125 -45 0 -45 0 0 285 0 285
185 0 185 0 0 -40z"/>
<path d="M3277 5233 c-4 -3 -7 -33 -7 -65 l0 -58 730 0 731 0 -3 63 -3 62
-721 3 c-396 1 -724 -1 -727 -5z"/>
<path d="M3270 4505 l0 -545 730 0 730 0 0 545 0 545 -730 0 -730 0 0 -545z
m887 390 c2 -11 -64 -182 -145 -380 -138 -336 -149 -360 -172 -360 -18 0 -26
6 -28 21 -3 19 269 703 291 732 15 19 52 10 54 -13z m-413 -188 c14 -22 0 -34
-110 -96 l-77 -43 84 -48 c93 -54 115 -76 98 -97 -6 -7 -18 -13 -26 -13 -22 0
-252 133 -258 149 -3 7 0 20 6 27 17 21 242 144 258 142 8 -2 19 -11 25 -21z
m670 -43 c114 -65 142 -89 128 -111 -10 -15 -236 -143 -254 -143 -24 0 -38 21
-28 40 5 10 48 40 95 66 99 55 100 47 -21 115 -40 21 -75 47 -78 55 -7 19 10
44 29 44 7 0 65 -30 129 -66z"/>
</g>
</svg>
